<svg width="41" height="42" viewBox="0 0 41 42" fill="none" xmlns="http://www.w3.org/2000/svg">
<path d="M36.2609 39.1716V19.8588C36.2214 19.7728 36.1878 19.6994 36.1484 19.6134L20.2235 6.23481C20.111 6.13027 19.936 6.13027 19.8235 6.23481L3.88559 19.6164C3.84195 19.7114 3.80479 19.7926 3.76115 19.8877V39.1716C3.76115 40.6088 4.88617 41.7846 6.26113 41.7846H14.7111C14.8837 41.7846 15.0236 41.6384 15.0236 41.458V30.2613C15.0236 30.0809 15.1635 29.9347 15.3361 29.9347H24.711C24.8829 29.9347 25.0235 30.0816 25.0235 30.2613V41.458C25.0235 41.6384 25.1634 41.7846 25.336 41.7846H33.7609C35.1359 41.7846 36.2609 40.6088 36.2609 39.1716Z" fill="#1B89EE"/>
<path d="M21.3688 0.492969C20.5845 -0.16475 19.4474 -0.164109 18.6656 0.493609L0.483983 15.7793C-0.0537382 16.2316 -0.139187 17.0539 0.293559 17.6166C0.726906 18.1792 1.51364 18.2673 2.05136 17.8156L20.0175 2.71045L37.9837 17.8156C38.5256 18.2699 39.3109 18.1755 39.7415 17.6166C40.1742 17.0539 40.0888 16.2316 39.5511 15.7793L21.3688 0.492969Z" fill="#1B89EE"/>
</svg>
