<svg width="70" height="70" viewBox="0 0 70 70" fill="none" xmlns="http://www.w3.org/2000/svg">
<rect width="70" height="70" fill="#C4C4C4"/>
<g filter="url(#filter0_d)">
<path d="M58.0083 44.5779C55.0703 41.703 51.6947 38.9589 47.1939 38.9589C41.2553 38.9589 36.567 44.3819 36.3794 44.6432C36.1919 44.9046 36.1919 45.2966 36.3794 45.4926C36.567 45.7539 41.2553 51.1769 47.1939 51.1769C52.9449 51.1769 56.8206 46.4726 57.9458 45.5579C58.2583 45.2966 58.2583 44.8392 58.0083 44.5779ZM47.1939 48.8248C45.1935 48.8248 43.6307 47.126 43.6307 45.0352C43.6307 42.9444 45.256 41.2457 47.1939 41.2457C49.1317 41.2457 50.8195 42.9444 50.8195 45.0352C50.8195 47.126 49.1942 48.8248 47.1939 48.8248Z" fill="white"/>
<path d="M39.1299 14.3921V23.1473H47.4439L39.1299 14.3921Z" fill="white"/>
<path d="M35.4418 46.3419C34.8167 45.6232 34.8167 44.5125 35.4418 43.7285C35.6293 43.4671 40.6928 37.5868 47.1939 37.5868C47.3815 37.5868 47.6315 37.5868 47.819 37.5868V24.454H38.5049C38.1298 24.454 37.8797 24.1273 37.8797 23.8006V14H19.814C18.9389 14 18.1887 14.7187 18.1887 15.6334V52.6797C18.1887 53.5944 18.9389 54.3131 19.814 54.3131H46.2563C47.1314 54.3131 47.819 53.5944 47.819 52.6797V52.4183C47.6315 52.4183 47.3815 52.4183 47.1939 52.4183C40.6928 52.4837 35.6293 46.6033 35.4418 46.3419ZM23.3146 18.5083H33.0039C33.3164 18.5083 33.629 18.835 33.629 19.1616C33.629 19.4883 33.3164 19.815 33.0039 19.815H23.3146C22.9396 19.815 22.6895 19.4883 22.6895 19.1616C22.6895 18.835 23.0021 18.5083 23.3146 18.5083ZM23.3146 24.5193H34.4416C34.8167 24.5193 35.0667 24.846 35.0667 25.1727C35.0667 25.4994 34.8167 25.826 34.4416 25.826H23.3146C22.9396 25.826 22.6895 25.4994 22.6895 25.1727C22.6895 24.846 23.0021 24.5193 23.3146 24.5193ZM23.3146 30.5303H42.6931C43.0057 30.5303 43.3182 30.7917 43.3182 31.1837C43.3182 31.5104 43.0057 31.8371 42.6931 31.8371H23.3146C22.9396 31.8371 22.6895 31.5104 22.6895 31.1837C22.6895 30.857 23.0021 30.5303 23.3146 30.5303ZM23.3146 36.5414H42.6931C43.0057 36.5414 43.3182 36.868 43.3182 37.1947C43.3182 37.5214 43.0057 37.8481 42.6931 37.8481H23.3146C22.9396 37.8481 22.6895 37.5214 22.6895 37.1947C22.6895 36.868 23.0021 36.5414 23.3146 36.5414ZM32.9414 49.8702H23.3146C22.9396 49.8702 22.6895 49.6088 22.6895 49.2168C22.6895 48.8901 22.9396 48.5634 23.3146 48.5634H32.9414C33.3164 48.5634 33.5665 48.8901 33.5665 49.2168C33.5665 49.5435 33.3164 49.8702 32.9414 49.8702ZM32.9414 43.8591H23.3146C22.9396 43.8591 22.6895 43.5324 22.6895 43.2058C22.6895 42.8791 22.9396 42.5524 23.3146 42.5524H32.9414C33.3164 42.5524 33.5665 42.8791 33.5665 43.2058C33.5665 43.5324 33.3164 43.8591 32.9414 43.8591Z" fill="white"/>
</g>
<g filter="url(#filter1_d)">
<path fill-rule="evenodd" clip-rule="evenodd" d="M57.5 7C61.6399 7 65 10.3601 65 14.5C65 18.6399 61.6399 22 57.5 22C53.3601 22 50 18.6399 50 14.5C50 10.3601 53.3601 7 57.5 7ZM56.1077 15.521L60.9344 10.6943L62.3267 12.1052L56.1077 18.3057L52.6918 14.8899L54.0842 13.479L56.1077 15.521Z" fill="#4C9B30"/>
</g>
<defs>
<filter id="filter0_d" x="14.1887" y="14" width="47.9999" height="48.3131" filterUnits="userSpaceOnUse" color-interpolation-filters="sRGB">
<feFlood flood-opacity="0" result="BackgroundImageFix"/>
<feColorMatrix in="SourceAlpha" type="matrix" values="0 0 0 0 0 0 0 0 0 0 0 0 0 0 0 0 0 0 127 0"/>
<feOffset dy="4"/>
<feGaussianBlur stdDeviation="2"/>
<feColorMatrix type="matrix" values="0 0 0 0 0 0 0 0 0 0 0 0 0 0 0 0 0 0 0.25 0"/>
<feBlend mode="normal" in2="BackgroundImageFix" result="effect1_dropShadow"/>
<feBlend mode="normal" in="SourceGraphic" in2="effect1_dropShadow" result="shape"/>
</filter>
<filter id="filter1_d" x="46" y="7" width="23" height="23" filterUnits="userSpaceOnUse" color-interpolation-filters="sRGB">
<feFlood flood-opacity="0" result="BackgroundImageFix"/>
<feColorMatrix in="SourceAlpha" type="matrix" values="0 0 0 0 0 0 0 0 0 0 0 0 0 0 0 0 0 0 127 0"/>
<feOffset dy="4"/>
<feGaussianBlur stdDeviation="2"/>
<feColorMatrix type="matrix" values="0 0 0 0 0 0 0 0 0 0 0 0 0 0 0 0 0 0 0.25 0"/>
<feBlend mode="normal" in2="BackgroundImageFix" result="effect1_dropShadow"/>
<feBlend mode="normal" in="SourceGraphic" in2="effect1_dropShadow" result="shape"/>
</filter>
</defs>
</svg>
