<svg width="70" height="70" viewBox="0 0 70 70" fill="none" xmlns="http://www.w3.org/2000/svg">
<rect width="70" height="70" fill="#C4C4C4"/>
<g filter="url(#filter0_d)">
<path d="M49.1609 38.6619C44.2374 38.6619 40.2324 42.6669 40.2324 47.5904C40.2324 52.5139 44.2374 56.5189 49.1609 56.5189C54.0845 56.5189 58.0895 52.5139 58.0895 47.5904C58.0895 42.6669 54.0845 38.6619 49.1609 38.6619ZM49.1609 54.9047C45.1269 54.9047 41.8467 51.6245 41.8467 47.5904C41.8467 43.5563 45.1269 40.2761 49.1609 40.2761C53.195 40.2761 56.4752 43.5563 56.4752 47.5904C56.4752 51.6245 53.195 54.9047 49.1609 54.9047Z" fill="white"/>
<path d="M49.1609 35.7547C47.453 35.7547 45.8339 36.126 44.3649 36.7797V34.5488C44.3649 34.0952 44.1648 33.6787 43.8096 33.2961C43.9356 33.1638 44.0389 33.0249 44.1228 32.8813C44.2713 32.7344 44.3649 32.5326 44.3649 32.3066V29.3735C44.3649 28.8908 44.1438 28.4517 43.7451 28.0498C43.9017 27.8964 44.0259 27.7334 44.1244 27.5639C44.2729 27.417 44.3666 27.2152 44.3666 26.9892V24.0561C44.3666 23.5734 44.1454 23.1343 43.7467 22.734C43.9033 22.5806 44.0259 22.4176 44.1244 22.2497C44.2729 22.1028 44.3666 21.901 44.3666 21.675V18.7403C44.3666 16.1703 38.3098 15 32.6825 15C27.0567 15 21 16.172 21 18.7403V21.6734C21 21.8994 21.092 22.1012 21.2421 22.2481C21.3406 22.4176 21.4649 22.579 21.6199 22.7324C21.2212 23.1343 21 23.5734 21 24.0561V26.9892C21 27.2152 21.092 27.417 21.2421 27.5639C21.3406 27.7334 21.4649 27.8948 21.6199 28.0481C21.2212 28.4485 21 28.8892 21 29.3718V32.305C21 32.531 21.092 32.7328 21.2421 32.8797C21.3261 33.0233 21.4294 33.1605 21.5553 33.2929C21.2018 33.6755 21.0016 34.092 21.0016 34.5472V37.4803C21.0016 37.7063 21.0936 37.9081 21.2438 38.055C21.3277 38.1987 21.431 38.3359 21.5569 38.4683C21.2034 38.8508 21.0032 39.2673 21.0032 39.7225V42.6557C21.0032 42.8817 21.0952 43.0835 21.2454 43.2304C21.3293 43.374 21.4326 43.5112 21.5585 43.6452C21.2034 44.0278 21.0032 44.4443 21.0032 44.8979V47.831C21.0032 48.0554 21.0952 48.2588 21.2438 48.4041C22.4044 50.3945 27.7089 51.313 32.6857 51.313C34.484 51.313 36.2371 51.1887 37.8272 50.9643C39.2848 55.8491 43.8129 59.4231 49.1658 59.4231C55.6907 59.4231 61 54.1138 61 47.5889C60.9952 41.064 55.6858 35.7547 49.1609 35.7547ZM32.6809 47.0255C26.1398 47.0255 22.6127 45.5145 22.6127 44.8995C22.6127 44.8979 22.6482 44.772 22.9129 44.567C25.1454 45.634 29.0003 46.1393 32.6809 46.1393C34.3516 46.1393 35.9804 46.0343 37.4688 45.8422C37.4252 46.1296 37.3913 46.4185 37.3687 46.7123C35.9126 46.9077 34.3242 47.0255 32.6809 47.0255ZM42.7507 32.0467C42.7507 32.6633 39.2203 34.1727 32.6809 34.1727C26.1415 34.1727 22.6127 32.6617 22.6127 32.0467V31.3978C24.7887 32.5649 28.8341 33.1137 32.6809 33.1137C36.5293 33.1137 40.5746 32.5649 42.7507 31.3978V32.0467ZM32.6809 35.787C36.3646 35.787 40.2195 35.2817 42.452 34.2147C42.6893 34.3971 42.7507 34.5214 42.7507 34.5488C42.7507 35.1671 39.2203 36.6748 32.6809 36.6748C26.1415 36.6748 22.6127 35.1655 22.6127 34.5488C22.6127 34.5214 22.6756 34.3955 22.9113 34.2147C25.1422 35.2817 28.9987 35.787 32.6809 35.787ZM32.6809 38.2891C36.5293 38.2891 40.5746 37.7402 42.7507 36.5731V37.222C42.7507 37.8403 39.2203 39.348 32.6809 39.348C26.1415 39.348 22.6127 37.8387 22.6127 37.222V36.5731C24.7871 37.7402 28.8341 38.2891 32.6809 38.2891ZM37.8368 44.1569C36.2694 44.3926 34.505 44.5234 32.6809 44.5234C26.1398 44.5234 22.6127 43.0124 22.6127 42.3974V41.7485C24.7887 42.9156 28.8341 43.4644 32.6809 43.4644C34.6357 43.4644 36.5487 43.324 38.2291 43.0641C38.0806 43.4208 37.9498 43.7857 37.8368 44.1569ZM39.188 41.2432C37.3413 41.6322 35.0554 41.8518 32.6809 41.8518C26.1398 41.8518 22.6127 40.3408 22.6127 39.7258C22.6127 39.6983 22.6756 39.5724 22.9113 39.3916C25.1438 40.4587 28.9987 40.9639 32.6809 40.9639C35.1959 40.9639 37.7933 40.7282 39.9015 40.2391C39.6464 40.5604 39.4091 40.8961 39.188 41.2432ZM22.6127 26.7293V26.0803C24.7887 27.2475 28.8341 27.7963 32.6809 27.7963C36.5293 27.7963 40.5746 27.2475 42.7507 26.0803V26.7293C42.7507 27.3476 39.2203 28.8553 32.6809 28.8553C26.1415 28.8553 22.6127 27.3476 22.6127 26.7293ZM22.6127 21.4135V20.7646C24.7887 21.9317 28.8341 22.4805 32.6809 22.4805C36.5293 22.4805 40.5746 21.9317 42.7507 20.7646V21.4135C42.7507 22.0318 39.2203 23.5395 32.6809 23.5395C26.1415 23.5395 22.6127 22.0318 22.6127 21.4135ZM32.6809 16.6127C39.2219 16.6127 42.7507 18.1236 42.7507 18.7386C42.7281 19.3553 39.1735 20.8646 32.6809 20.8646C26.1899 20.8646 22.6336 19.3537 22.6127 18.7386C22.6127 18.1236 26.1398 16.6127 32.6809 16.6127ZM32.6809 25.1538C36.2968 25.1538 40.0807 24.6662 42.331 23.6396C42.6538 23.8607 42.7491 24.0238 42.7507 24.0544C42.7507 24.6727 39.2203 26.1804 32.6809 26.1804C26.1415 26.1804 22.6127 24.6743 22.6127 24.0561C22.6127 24.0544 22.6659 23.893 23.034 23.6412C25.2827 24.6679 29.0665 25.1538 32.6809 25.1538ZM32.6809 30.4696C36.2968 30.4696 40.0791 29.9837 42.3294 28.9554C42.6587 29.1797 42.7507 29.3412 42.7507 29.3718C42.7507 29.9885 39.2203 31.4978 32.6809 31.4978C26.1415 31.4978 22.6127 29.9869 22.6127 29.3718C22.6127 29.3396 22.7063 29.1781 23.034 28.9554C25.2843 29.9837 29.0665 30.4696 32.6809 30.4696ZM32.6809 49.702C26.1899 49.702 22.6336 48.191 22.6127 47.576V46.9238C24.7887 48.0909 28.8341 48.6398 32.6809 48.6398C34.3145 48.6398 35.8933 48.5203 37.3622 48.3363C37.3848 48.6898 37.422 49.0401 37.4752 49.3856C35.9933 49.589 34.3581 49.702 32.6809 49.702ZM49.1609 57.8104C43.5255 57.8104 38.9394 53.2259 38.9394 47.5905C38.9394 41.9551 43.5255 37.3689 49.1609 37.3689C54.7964 37.3689 59.3809 41.9551 59.3809 47.5905C59.3809 53.2259 54.7964 57.8104 49.1609 57.8104Z" fill="white"/>
<path d="M51.8019 47.2887C51.5162 47.0869 51.1675 46.9126 50.7607 46.7705C50.3523 46.6301 49.897 46.4993 49.3934 46.3815C48.9914 46.2798 48.7025 46.2023 48.5281 46.149C48.3538 46.0958 48.1827 46.0231 48.01 45.9295C47.8405 45.8375 47.7065 45.7261 47.608 45.5954C47.5112 45.4662 47.4627 45.3112 47.4627 45.1337C47.4627 44.8447 47.6048 44.5977 47.8905 44.3927C48.0245 44.2975 48.1811 44.2281 48.3538 44.178V44.7479C48.3538 45.1934 48.7154 45.555 49.1609 45.555C49.6065 45.555 49.9681 45.1934 49.9681 44.7479V44.2975C50.0149 44.3233 50.0795 44.3378 50.1182 44.3685C50.3458 44.5574 50.5411 44.8205 50.7042 45.1579C50.8285 45.3936 50.9463 45.5631 51.0529 45.6664C51.161 45.7697 51.3176 45.8214 51.5258 45.8214C51.7535 45.8214 51.9423 45.7342 52.0957 45.5615C52.249 45.3903 52.3249 45.195 52.3249 44.9803C52.3249 44.7446 52.2636 44.5025 52.1409 44.2555C52.0198 44.0069 51.8277 43.7712 51.563 43.5452C51.2982 43.3192 50.9673 43.1384 50.567 43.0028C50.3846 42.9415 50.1828 42.8979 49.9697 42.864V42.3894C49.9697 41.9439 49.6081 41.5823 49.1626 41.5823C48.717 41.5823 48.3554 41.9439 48.3554 42.3894V42.8624C47.9938 42.9124 47.6532 42.9867 47.3546 43.1078C46.8477 43.3128 46.4603 43.6066 46.1907 43.9875C45.9227 44.3685 45.7887 44.806 45.7887 45.2983C45.7887 45.8133 45.9146 46.2443 46.1681 46.5914C46.4215 46.9384 46.7654 47.2112 47.198 47.413C47.5208 47.5631 47.9212 47.6939 48.3603 47.8166C48.3603 47.8247 48.3554 47.8311 48.3554 47.8392V50.5802C48.2973 50.5592 48.2279 50.5463 48.1746 50.5205C47.9357 50.3978 47.7501 50.2396 47.6193 50.0475C47.4869 49.857 47.3643 49.6197 47.2496 49.334C47.1576 49.0951 47.0446 48.9143 46.9123 48.7932C46.7799 48.6722 46.6185 48.6092 46.428 48.6092C46.1923 48.6092 45.9986 48.6883 45.8452 48.8433C45.6935 48.9998 45.6176 49.1887 45.6176 49.4066C45.6176 49.7844 45.7435 50.1734 45.997 50.5721C46.2504 50.9725 46.5813 51.2921 46.9865 51.531C47.3659 51.7522 47.8388 51.8716 48.3538 51.9475V52.7885C48.3538 53.2341 48.7154 53.5957 49.1609 53.5957C49.6065 53.5957 49.9681 53.2341 49.9681 52.7885V51.962C50.3684 51.9039 50.7462 51.8167 51.0738 51.6682C51.6098 51.4245 52.0166 51.0871 52.2942 50.6561C52.5735 50.2267 52.7123 49.7408 52.7123 49.2016C52.7123 48.7513 52.6316 48.3703 52.4718 48.0603C52.3104 47.7488 52.0876 47.4921 51.8019 47.2887ZM50.4249 50.33C50.2925 50.4285 50.1311 50.493 49.9681 50.5528V48.2573C50.2473 48.3558 50.4782 48.493 50.6558 48.6738C50.8382 48.8594 50.9269 49.0999 50.9269 49.3953C50.9269 49.7699 50.7591 50.0814 50.4249 50.33Z" fill="white"/>
</g>
<defs>
<filter id="filter0_d" x="17" y="15" width="48" height="52.4231" filterUnits="userSpaceOnUse" color-interpolation-filters="sRGB">
<feFlood flood-opacity="0" result="BackgroundImageFix"/>
<feColorMatrix in="SourceAlpha" type="matrix" values="0 0 0 0 0 0 0 0 0 0 0 0 0 0 0 0 0 0 127 0"/>
<feOffset dy="4"/>
<feGaussianBlur stdDeviation="2"/>
<feColorMatrix type="matrix" values="0 0 0 0 0 0 0 0 0 0 0 0 0 0 0 0 0 0 0.25 0"/>
<feBlend mode="normal" in2="BackgroundImageFix" result="effect1_dropShadow"/>
<feBlend mode="normal" in="SourceGraphic" in2="effect1_dropShadow" result="shape"/>
</filter>
</defs>
</svg>
