<svg width="53" height="36" viewBox="0 0 53 36" fill="none" xmlns="http://www.w3.org/2000/svg">
<path d="M44.671 9.4442C47.314 8.2347 49.7906 6.66182 52.0353 4.76714C52.1555 4.67134 52.2537 4.54867 52.3229 4.40818C52.392 4.2677 52.4303 4.1129 52.435 3.955C52.4396 3.79709 52.4106 3.64012 52.3498 3.49544C52.2891 3.35076 52.1983 3.22203 52.084 3.11865C50.7339 1.89564 49.077 1.10213 47.3091 0.831912C45.5413 0.561698 43.7364 0.826127 42.1077 1.59383L29.5605 7.50778C29.4961 7.5375 29.4233 7.54088 29.3566 7.51712L16.8764 3.13875C14.9934 2.72226 13.0297 3.03457 11.3505 4.01767C11.2786 4.05693 11.2177 4.11506 11.1738 4.18633C11.1298 4.2576 11.1044 4.33952 11.0999 4.42417C11.0955 4.50883 11.1121 4.5932 11.1483 4.66909C11.1844 4.74498 11.2389 4.80985 11.3062 4.85713L20.7674 11.1425C20.8098 11.1717 20.8439 11.2124 20.866 11.2602C20.888 11.308 20.8973 11.3611 20.8927 11.414C20.8882 11.4669 20.87 11.5174 20.8401 11.5603C20.8103 11.6032 20.7698 11.6369 20.7231 11.6576L10.1478 16.6423C10.0071 16.7086 9.85286 16.7376 9.69886 16.7265C9.54486 16.7154 9.39587 16.6646 9.26518 16.5788L2.59196 12.1991C2.37672 12.058 2.12344 11.9938 1.87025 12.016C1.61705 12.0383 1.37761 12.1459 1.18797 12.3226C0.998332 12.4994 0.868739 12.7358 0.818692 12.9961C0.768645 13.2565 0.800851 13.5269 0.910463 13.7665L4.94419 22.5787C5.12306 22.9695 5.40109 23.3015 5.748 23.5385C6.09491 23.7755 6.4974 23.9085 6.91162 23.9229C11.2041 24.0723 15.4722 23.1904 19.3874 21.345L26.734 17.882C26.7804 17.8606 26.8316 17.8527 26.8819 17.8592C26.9323 17.8658 26.9801 17.8865 27.0201 17.9191C27.0601 17.9517 27.0909 17.9951 27.1092 18.0446C27.1276 18.0941 27.1327 18.1478 27.1241 18.2001L24.2949 35.1558C24.281 35.239 24.288 35.3245 24.3151 35.404C24.3422 35.4835 24.3885 35.5543 24.4496 35.6096C24.5106 35.6648 24.5843 35.7027 24.6635 35.7194C24.7426 35.736 24.8246 35.7309 24.9013 35.7047C26.5304 35.1471 27.924 34.0163 28.8446 32.505L37.4015 12.9329C37.4302 12.8679 37.4807 12.8161 37.5434 12.7873L44.671 9.4442Z" fill="#1B89EE"/>
</svg>
