<svg width="1029" height="90" viewBox="0 0 1029 90" fill="none" xmlns="http://www.w3.org/2000/svg">
<rect x="16" y="74" width="1002" height="6" fill="#C4C4C4"/>
<path d="M29.1431 48.1759H5.44998C2.46683 48.1759 0 45.5975 0 42.4795V6.32253C0 3.20452 2.46683 0.62616 5.44998 0.62616H29.0857C32.0688 0.62616 34.5357 3.20452 34.5357 6.32253V42.4795C34.593 45.6575 32.1262 48.1759 29.1431 48.1759ZM5.44998 3.62425C4.01578 3.62425 2.86841 4.82348 2.86841 6.32253V42.4795C2.86841 43.9785 4.01578 45.1778 5.44998 45.1778H29.0857C30.5199 45.1778 31.6673 43.9785 31.6673 42.4795V6.32253C31.6673 4.82348 30.5199 3.62425 29.0857 3.62425H5.44998Z" fill="#1B89EE"/>
<path d="M26.3894 15.8564H7.62998C6.82682 15.8564 6.19577 15.1969 6.19577 14.3574C6.19577 13.5179 6.82682 12.8584 7.62998 12.8584H26.3894C27.1925 12.8584 27.8236 13.5179 27.8236 14.3574C27.8236 15.1969 27.1925 15.8564 26.3894 15.8564Z" fill="#1B89EE"/>
<path d="M26.3894 23.6515H7.62998C6.82682 23.6515 6.19577 22.9919 6.19577 22.1525C6.19577 21.313 6.82682 20.6534 7.62998 20.6534H26.3894C27.1925 20.6534 27.8236 21.313 27.8236 22.1525C27.8236 22.9919 27.1925 23.6515 26.3894 23.6515Z" fill="#1B89EE"/>
<path d="M26.3894 31.4465H7.62998C6.82682 31.4465 6.19577 30.7869 6.19577 29.9475C6.19577 29.108 6.82682 28.4484 7.62998 28.4484H26.3894C27.1925 28.4484 27.8236 29.108 27.8236 29.9475C27.8236 30.7869 27.1925 31.4465 26.3894 31.4465Z" fill="#1B89EE"/>
<path d="M34.1915 28.9281L37.3467 32.226L29.3725 40.5008L26.2173 37.2029L34.1915 28.9281ZM39.6988 28.0887L38.322 26.6496C37.8057 26.1099 36.8878 26.1099 36.3714 26.6496L34.9946 28.0287L38.1499 31.3266L39.6988 29.7076C40.1004 29.2279 40.1004 28.5684 39.6988 28.0887ZM24.611 41.8199C24.5536 42.0598 24.7831 42.2996 25.0699 42.2396L28.5694 41.3402L25.4141 38.0423L24.611 41.8199Z" fill="#1B89EE"/>
<path d="M128.699 33.5924C131.281 33.5924 133.382 31.396 133.382 28.6971C133.382 25.9981 131.281 23.8018 128.699 23.8018C126.117 23.8018 124.015 25.9981 124.015 28.6971C124.015 31.3965 126.117 33.5924 128.699 33.5924Z" fill="#C4C4C4"/>
<path d="M136.139 48.1575V39.1208C136.139 36.891 134.843 34.9725 132.998 34.1419C131.829 35.1518 130.33 35.7599 128.699 35.7599C127.067 35.7599 125.569 35.1523 124.4 34.1419C122.555 34.973 121.259 36.891 121.259 39.1208V48.1575H132.971H136.139Z" fill="#C4C4C4"/>
<path d="M149.135 28.6971C149.135 31.3965 151.237 33.5924 153.819 33.5924C156.401 33.5924 158.502 31.396 158.502 28.6971C158.502 25.9981 156.401 23.8018 153.819 23.8018C151.236 23.8018 149.135 25.9976 149.135 28.6971Z" fill="#C4C4C4"/>
<path d="M153.819 35.7599C152.187 35.7599 150.689 35.1523 149.52 34.1419C147.674 34.9725 146.378 36.8906 146.378 39.1208V48.1575H149.546H161.259V39.1208C161.259 36.891 159.963 34.973 158.118 34.1424C156.949 35.1523 155.45 35.7599 153.819 35.7599Z" fill="#C4C4C4"/>
<path d="M141.259 30.944C144.157 30.944 146.515 28.4797 146.515 25.4504C146.515 22.4212 144.157 19.9573 141.259 19.9573C138.361 19.9573 136.003 22.4216 136.003 25.4504C136.003 28.4792 138.361 30.944 141.259 30.944Z" fill="#C4C4C4"/>
<path d="M148.063 32.4789C147.522 31.901 146.857 31.4532 146.115 31.173C144.82 32.3748 143.122 33.1116 141.259 33.1116C139.396 33.1116 137.697 32.3748 136.403 31.1735C135.661 31.4536 134.996 31.9014 134.455 32.4793C136.693 33.7731 138.213 36.2644 138.213 39.1213V48.1579H144.305V39.1208C144.305 36.2639 145.825 33.7726 148.063 32.4789Z" fill="#C4C4C4"/>
<path d="M144.729 18.7053C146.729 19.8342 148.165 21.9088 148.504 24.3504C149.7 22.7561 151.534 21.7146 153.602 21.6459C153.663 21.3328 153.695 21.009 153.695 20.6773C153.695 17.9783 151.594 15.782 149.012 15.782C147.101 15.782 145.456 16.9861 144.729 18.7053Z" fill="#C4C4C4"/>
<path d="M134.014 24.3499C134.347 21.9432 135.749 19.895 137.705 18.756C136.94 17.1357 135.348 16.0157 133.505 16.0157C130.923 16.0157 128.822 18.212 128.822 20.911C128.822 21.1604 128.845 21.4038 128.88 21.6435C130.963 21.7021 132.811 22.7468 134.014 24.3499Z" fill="#C4C4C4"/>
<path d="M139.647 17.9825C140.167 17.8599 140.705 17.7897 141.259 17.7897C141.78 17.7897 142.287 17.8487 142.777 17.9574C143.372 16.4737 144.437 15.2459 145.777 14.4785C145.241 12.3927 143.421 10.8505 141.259 10.8505C139.025 10.8505 137.155 12.4945 136.689 14.6843C137.989 15.4131 139.03 16.5754 139.647 17.9825Z" fill="#C4C4C4"/>
<path d="M291.671 25.4442C294.314 24.2347 296.791 22.6618 299.035 20.7671C299.155 20.6713 299.254 20.5487 299.323 20.4082C299.392 20.2677 299.43 20.1129 299.435 19.955C299.44 19.7971 299.411 19.6401 299.35 19.4954C299.289 19.3508 299.198 19.222 299.084 19.1187C297.734 17.8956 296.077 17.1021 294.309 16.8319C292.541 16.5617 290.736 16.8261 289.108 17.5938L276.561 23.5078C276.496 23.5375 276.423 23.5409 276.357 23.5171L263.876 19.1387C261.993 18.7223 260.03 19.0346 258.35 20.0177C258.279 20.0569 258.218 20.1151 258.174 20.1863C258.13 20.2576 258.104 20.3395 258.1 20.4242C258.095 20.5088 258.112 20.5932 258.148 20.6691C258.184 20.745 258.239 20.8098 258.306 20.8571L267.767 27.1425C267.81 27.1717 267.844 27.2124 267.866 27.2602C267.888 27.308 267.897 27.3611 267.893 27.414C267.888 27.4669 267.87 27.5174 267.84 27.5603C267.81 27.6032 267.77 27.6369 267.723 27.6576L257.148 32.6423C257.007 32.7086 256.853 32.7376 256.699 32.7265C256.545 32.7154 256.396 32.6646 256.265 32.5788L249.592 28.1991C249.377 28.058 249.123 27.9938 248.87 28.016C248.617 28.0383 248.378 28.1459 248.188 28.3226C247.998 28.4994 247.869 28.7358 247.819 28.9961C247.769 29.2565 247.801 29.5269 247.91 29.7665L251.944 38.5787C252.123 38.9695 252.401 39.3015 252.748 39.5385C253.095 39.7755 253.497 39.9085 253.912 39.9229C258.204 40.0723 262.472 39.1904 266.387 37.345L273.734 33.882C273.78 33.8606 273.832 33.8527 273.882 33.8592C273.932 33.8658 273.98 33.8865 274.02 33.9191C274.06 33.9517 274.091 33.9951 274.109 34.0446C274.128 34.0941 274.133 34.1478 274.124 34.2001L271.295 51.1558C271.281 51.239 271.288 51.3245 271.315 51.404C271.342 51.4835 271.389 51.5543 271.45 51.6096C271.511 51.6648 271.584 51.7027 271.663 51.7194C271.743 51.736 271.825 51.7309 271.901 51.7047C273.53 51.1471 274.924 50.0163 275.845 48.505L284.401 28.9329C284.43 28.8679 284.481 28.8161 284.543 28.7873L291.671 25.4442Z" fill="#C4C4C4"/>
<path d="M391.19 11.6517C387.84 13.1449 385.377 16.4916 385.033 20.4561H388.432C388.629 16.8005 389.663 13.6083 391.19 11.6517Z" fill="#C4C4C4"/>
<path d="M399.958 20.4561C399.712 15.3588 397.594 11.2398 395.082 11.2398C392.569 11.2398 390.402 15.3588 390.205 20.4561H399.958Z" fill="#C4C4C4"/>
<path d="M385.033 22.2581C385.377 26.2227 387.791 29.5694 391.19 31.0625C389.663 29.106 388.629 25.9138 388.481 22.2581H385.033Z" fill="#C4C4C4"/>
<path d="M398.924 11.6517C400.451 13.6083 401.486 16.8005 401.633 20.4561H405.032C404.786 16.4916 402.323 13.1449 398.924 11.6517Z" fill="#C4C4C4"/>
<path d="M409.564 4.70093H380.55C379.121 4.70093 377.988 5.88514 377.988 7.37827V47.0236C377.988 48.5167 379.121 49.7009 380.55 49.7009H409.564C410.993 49.7009 412.126 48.5167 412.126 47.0236V7.37827C412.126 5.88514 410.993 4.70093 409.564 4.70093ZM405.968 42.6472H384.195C383.703 42.6472 383.358 42.2353 383.358 41.7719C383.358 41.257 383.752 40.8966 384.195 40.8966H405.968C406.461 40.8966 406.806 41.3085 406.806 41.7719C406.806 42.2353 406.412 42.6472 405.968 42.6472ZM405.82 39.352H384.294C383.752 39.352 383.308 38.8886 383.308 38.3222C383.308 37.7558 383.752 37.2925 384.294 37.2925H405.82C406.362 37.2925 406.806 37.7558 406.806 38.3222C406.806 38.8886 406.362 39.352 405.82 39.352ZM395.082 33.6369C388.579 33.6369 383.308 28.1277 383.308 21.3314C383.308 14.5865 388.579 9.02587 395.082 9.02587C401.535 9.02587 406.806 14.5865 406.806 21.3314C406.806 28.1277 401.535 33.6369 395.082 33.6369Z" fill="#C4C4C4"/>
<path d="M390.156 22.2581C390.402 27.3554 392.52 31.4744 395.032 31.4744C397.545 31.4744 399.712 27.3554 399.909 22.2581H390.156Z" fill="#C4C4C4"/>
<path d="M398.924 31.0625C402.274 29.5694 404.737 26.2227 405.082 22.2581H401.683C401.535 25.9138 400.5 29.0545 398.924 31.0625Z" fill="#C4C4C4"/>
<path d="M538.261 41.1717V21.8588C538.221 21.7728 538.188 21.6994 538.148 21.6134L522.223 8.23483C522.111 8.13028 521.936 8.13028 521.823 8.23483L505.886 21.6164C505.842 21.7115 505.805 21.7926 505.761 21.8877V41.1717C505.761 42.6088 506.886 43.7847 508.261 43.7847H516.711C516.884 43.7847 517.024 43.6384 517.024 43.458V32.2613C517.024 32.0809 517.164 31.9347 517.336 31.9347H526.711C526.883 31.9347 527.023 32.0817 527.023 32.2613V43.458C527.023 43.6384 527.163 43.7847 527.336 43.7847H535.761C537.136 43.7847 538.261 42.6088 538.261 41.1717Z" fill="#C4C4C4"/>
<path d="M523.369 2.49297C522.585 1.83525 521.447 1.83589 520.666 2.49361L502.484 17.7793C501.946 18.2316 501.861 19.0539 502.294 19.6166C502.727 20.1792 503.514 20.2673 504.051 19.8156L522.018 4.71045L539.984 19.8156C540.526 20.2699 541.311 20.1755 541.741 19.6166C542.174 19.0539 542.089 18.2316 541.551 17.7793L523.369 2.49297Z" fill="#C4C4C4"/>
<path d="M803.39 45.7253C802.46 45.7503 801.544 45.482 800.762 44.9554C799.719 44.3137 798.531 43.9753 797.321 43.9753C796.111 43.9753 794.923 44.3137 793.88 44.9554C793.087 45.459 792.176 45.7253 791.248 45.7253C790.319 45.7253 789.409 45.459 788.615 44.9554C787.572 44.3137 786.384 43.9753 785.174 43.9753C783.964 43.9753 782.776 44.3137 781.734 44.9554C780.942 45.459 780.032 45.7253 779.105 45.7253C778.178 45.7253 777.269 45.459 776.477 44.9554C775.443 44.2914 774.249 43.9512 773.036 43.9754C771.823 43.9512 770.629 44.2914 769.596 44.9554C768.813 45.482 767.897 45.7503 766.967 45.7253C766.037 45.7476 765.122 45.4795 764.338 44.9554C763.309 44.2899 762.117 43.9496 760.906 43.9754C759.693 43.9512 758.499 44.2914 757.466 44.9554C756.683 45.4808 755.767 45.7489 754.837 45.7253C754.615 45.7253 754.402 45.8175 754.245 45.9816C754.088 46.1457 754 46.3683 754 46.6003C754 46.8324 754.088 47.0549 754.245 47.219C754.402 47.3831 754.615 47.4753 754.837 47.4753C756.05 47.4994 757.244 47.1593 758.278 46.4953C759.06 45.9687 759.976 45.7004 760.906 45.7253C761.836 45.7017 762.752 45.9699 763.535 46.4953C764.565 47.1608 765.757 47.5011 766.967 47.4753C768.18 47.5008 769.375 47.1606 770.408 46.4953C771.19 45.9699 772.106 45.7017 773.036 45.7253C773.966 45.7004 774.882 45.9687 775.665 46.4953C776.707 47.137 777.895 47.4754 779.105 47.4754C780.315 47.4754 781.503 47.137 782.546 46.4953C783.338 45.9917 784.247 45.7253 785.174 45.7253C786.102 45.7253 787.011 45.9917 787.803 46.4953C788.846 47.137 790.034 47.4754 791.244 47.4754C792.453 47.4754 793.641 47.137 794.684 46.4953C795.478 45.9917 796.388 45.7254 797.317 45.7254C798.245 45.7254 799.156 45.9917 799.95 46.4953C800.983 47.1593 802.177 47.4994 803.39 47.4753C803.612 47.4753 803.825 47.3831 803.982 47.219C804.139 47.0549 804.227 46.8324 804.227 46.6003C804.227 46.3683 804.139 46.1457 803.982 45.9816C803.825 45.8175 803.612 45.7253 803.39 45.7253Z" fill="#C4C4C4"/>
<path d="M754.837 43.9754C756.048 44.004 757.241 43.6635 758.269 42.9954C759.056 42.4714 759.974 42.2034 760.906 42.2255C761.837 42.2004 762.753 42.4687 763.535 42.9954C763.545 43.0024 763.557 43.0055 763.568 43.0042C764.586 43.6683 765.768 44.006 766.967 43.9754C768.184 44 769.381 43.6567 770.416 42.9867C771.197 42.4659 772.11 42.2009 773.036 42.2255C773.972 42.2007 774.893 42.4689 775.681 42.9954C776.707 43.6638 777.897 44.0044 779.105 43.9754C780.322 44 781.52 43.6567 782.554 42.9867C783.35 42.4872 784.26 42.224 785.188 42.2255C786.116 42.2271 787.026 42.4933 787.82 42.9954C788.845 43.6638 790.035 44.0044 791.244 43.9754C792.456 43.9996 793.651 43.6595 794.684 42.9954C795.471 42.4714 796.388 42.2034 797.321 42.2255C797.494 42.2251 797.668 42.2338 797.84 42.2517C798.591 42.3147 799.316 42.5701 799.95 42.9954C800.983 43.6607 802.177 44.0009 803.39 43.9754C803.612 43.9754 803.825 43.8832 803.982 43.7191C804.139 43.555 804.227 43.3325 804.227 43.1004C804.227 42.8684 804.139 42.6458 803.982 42.4817C803.825 42.3177 803.612 42.2255 803.39 42.2255C802.457 42.2488 801.539 41.9807 800.753 41.4555C800.243 41.1386 799.698 40.8888 799.129 40.7118C798.754 40.6032 798.37 40.5329 797.982 40.5018C797.793 40.4843 797.592 40.4755 797.38 40.4755H797.321C796.108 40.4514 794.914 40.7915 793.88 41.4555C793.085 41.9591 792.173 42.2254 791.244 42.2254C790.314 42.2254 789.402 41.9591 788.607 41.4555C787.567 40.8139 786.382 40.4755 785.174 40.4755C783.967 40.4755 782.782 40.8139 781.742 41.4555C780.947 41.9591 780.035 42.2254 779.105 42.2254C778.175 42.2254 777.264 41.9591 776.468 41.4555C775.44 40.7873 774.247 40.4468 773.036 40.4755C771.825 40.4469 770.633 40.7874 769.604 41.4555C768.817 41.9795 767.9 42.2475 766.967 42.2255C766.034 42.2488 765.116 41.9807 764.33 41.4555C763.304 40.7885 762.114 40.448 760.906 40.4755C760.59 40.4722 760.274 40.4927 759.96 40.5368C759.86 40.5455 759.768 40.563 759.676 40.5805C759.619 40.5871 759.563 40.5988 759.508 40.6155C759.425 40.633 759.349 40.6505 759.274 40.668C759.198 40.6843 759.122 40.7048 759.048 40.7293C758.845 40.7874 758.646 40.8605 758.454 40.948C758.333 40.9965 758.216 41.052 758.102 41.1143C758.053 41.134 758.005 41.1574 757.96 41.1843C757.784 41.2805 757.616 41.368 757.457 41.4643C757.128 41.6659 756.784 41.8386 756.428 41.9805C755.914 42.155 755.377 42.2379 754.837 42.2255C754.615 42.2255 754.402 42.3177 754.245 42.4817C754.088 42.6458 754 42.8684 754 43.1004C754 43.3325 754.088 43.555 754.245 43.7191C754.402 43.8832 754.615 43.9754 754.837 43.9754V43.9754Z" fill="#C4C4C4"/>
<path d="M756.428 40.2306C756.784 40.0887 757.128 39.916 757.457 39.7143C757.616 39.6181 757.784 39.5306 757.96 39.4343C758.005 39.4074 758.053 39.3841 758.102 39.3643C758.216 39.302 758.333 39.2465 758.453 39.1981C758.646 39.1106 758.845 39.0375 759.048 38.9794C759.122 38.9549 759.198 38.9344 759.274 38.9181C759.349 38.9006 759.425 38.8831 759.508 38.8656C759.563 38.8489 759.619 38.8372 759.676 38.8306C759.768 38.8131 759.86 38.7956 759.96 38.7869C760.274 38.7427 760.59 38.7223 760.906 38.7256C762.114 38.6981 763.304 39.0386 764.33 39.7056C765.116 40.2308 766.034 40.4989 766.967 40.4755C767.9 40.4976 768.817 40.2296 769.604 39.7056C770.633 39.0375 771.825 38.697 773.036 38.7256C774.247 38.6969 775.44 39.0374 776.468 39.7056C777.263 40.2092 778.175 40.4755 779.105 40.4755C780.035 40.4755 780.947 40.2092 781.742 39.7056C782.782 39.064 783.967 38.7255 785.174 38.7255C786.382 38.7255 787.567 39.064 788.607 39.7056C789.402 40.2092 790.314 40.4755 791.243 40.4755C792.173 40.4755 793.085 40.2092 793.88 39.7056C794.914 39.0416 796.108 38.7015 797.321 38.7256H797.38C797.589 38.7256 797.79 38.7344 797.982 38.7519C798.37 38.7829 798.754 38.8533 799.129 38.9619L804.152 27.7185C804.211 27.5847 804.236 27.4375 804.226 27.2907C804.215 27.1439 804.17 27.0021 804.093 26.8786C804.019 26.7545 803.915 26.6524 803.792 26.582C803.669 26.5116 803.53 26.4751 803.39 26.4761H791.67C791.489 26.4751 791.313 26.5366 791.168 26.6511L788.046 29.101H754.837C754.71 29.1003 754.584 29.1298 754.47 29.1875C754.355 29.2451 754.255 29.3292 754.176 29.4335C754.099 29.5393 754.045 29.6618 754.019 29.7919C753.993 29.9221 753.995 30.0567 754.025 30.186L756.428 40.2306Z" fill="#C4C4C4"/>
<path d="M778.218 18.2864C778.158 18.1216 778.051 17.9797 777.912 17.8797C777.773 17.7797 777.608 17.7262 777.439 17.7264H767.394V13.3516C767.394 13.1195 767.306 12.897 767.149 12.7329C766.992 12.5688 766.779 12.4766 766.557 12.4766H763.208C762.986 12.4766 762.773 12.5688 762.616 12.7329C762.459 12.897 762.371 13.1195 762.371 13.3516V17.7264H760.697C760.475 17.7264 760.262 17.8186 760.105 17.9827C759.948 18.1468 759.86 18.3693 759.86 18.6014V27.3511H781.55L778.218 18.2864ZM765.301 24.7262C764.887 24.7262 764.483 24.5979 764.138 24.3575C763.794 24.1172 763.526 23.7755 763.368 23.3758C763.209 22.9761 763.168 22.5363 763.249 22.112C763.329 21.6877 763.529 21.2979 763.821 20.992C764.114 20.6861 764.487 20.4778 764.893 20.3934C765.299 20.309 765.72 20.3523 766.102 20.5178C766.484 20.6834 766.811 20.9638 767.041 21.3235C767.271 21.6832 767.394 22.1061 767.394 22.5387C767.394 23.1189 767.173 23.6753 766.781 24.0855C766.389 24.4957 765.856 24.7262 765.301 24.7262ZM773.672 24.7262C773.258 24.7262 772.854 24.5979 772.51 24.3575C772.165 24.1172 771.897 23.7755 771.739 23.3758C771.58 22.9761 771.539 22.5363 771.62 22.112C771.701 21.6877 771.9 21.2979 772.193 20.992C772.485 20.6861 772.858 20.4778 773.264 20.3934C773.67 20.309 774.091 20.3523 774.473 20.5178C774.856 20.6834 775.182 20.9638 775.412 21.3235C775.642 21.6832 775.765 22.1061 775.765 22.5387C775.765 23.1189 775.545 23.6753 775.152 24.0855C774.76 24.4957 774.227 24.7262 773.672 24.7262V24.7262Z" fill="#C4C4C4"/>
<g clip-path="url(#clip0)">
<path d="M663.648 20.4395L662.658 26.3207C662.519 27.1485 661.769 28.7138 659.931 28.7138H638.412C637.608 28.7138 636.003 28.2146 635.678 26.3232L634.672 20.4537L629.256 21.0876V24.6534H632.095V27.0068H631.282C631.282 27.0068 629.243 26.8747 629.243 29.0056V43.7326C629.243 43.7326 629.243 45.7319 631.282 45.7319H634.027C634.027 45.7319 636.066 45.864 636.066 43.7326V38.0555H650.314C650.314 38.0555 651.523 39.2315 652.939 39.2905C655.146 39.3829 656.195 37.5638 656.195 37.5638L662.361 39.1726V43.7326C662.361 43.7326 662.656 45.7319 664.696 45.7319H667.144C667.144 45.7319 669.184 45.864 669.184 43.7326V29.0056C669.184 29.0056 669.184 27.0068 667.144 27.0068H666.335L666.364 24.6534H669.194V21.0876L663.648 20.4395Z" fill="#C4C4C4"/>
<path d="M665.4 18.9252L665.406 14.5604H662.85V10.5903C662.85 9.13957 661.722 7.95932 660.333 7.95932H638.173C636.785 7.95932 635.655 9.13957 635.655 10.5903V14.5558L633.182 14.55L633.174 18.947L635.437 18.9545C635.428 19.197 636.601 25.9779 636.601 25.9779C636.907 27.7627 638.593 27.7823 638.665 27.7823H659.677C661.412 27.7823 661.723 26.0511 661.736 25.9779C661.736 25.9779 662.907 19.0795 662.908 18.9257H665.4V18.9252ZM654.243 16.7027C654.5 15.9037 655.222 15.326 656.072 15.326C656.922 15.326 657.645 15.9037 657.902 16.7027H654.243ZM637.249 10.5903C637.249 10.0581 637.663 9.62455 638.173 9.62455H660.332C660.842 9.62455 661.257 10.0581 661.257 10.5903V16.7023H659.648C659.356 14.915 657.865 13.5495 656.072 13.5495C654.281 13.5495 652.788 14.9146 652.496 16.7023H646.705V15.2712C646.705 15.2712 646.705 14.5604 646.025 14.5604H641.398C641.398 14.5604 640.719 14.5604 640.719 15.2712V16.7023H637.249V10.5903ZM639.927 23.6872C638.813 23.6872 637.91 22.7436 637.91 21.5796C637.91 20.4153 638.813 19.4717 639.927 19.4717C641.04 19.4717 641.943 20.4153 641.943 21.5796C641.943 22.7436 641.04 23.6872 639.927 23.6872ZM658.32 23.6872C657.207 23.6872 656.304 22.7436 656.304 21.5796C656.304 20.4153 657.207 19.4717 658.32 19.4717C659.434 19.4717 660.337 20.4153 660.337 21.5796C660.337 22.7436 659.434 23.6872 658.32 23.6872ZM644.859 26.207H643.395V19.725H644.859V26.207V26.207ZM647.384 26.207H645.92V19.725H647.384V26.207V26.207ZM649.898 26.207H648.434V19.725H649.898V26.207V26.207ZM652.422 26.207H650.958V19.725H652.422V26.207ZM654.95 26.207H653.486V19.725H654.95V26.207Z" fill="#C4C4C4"/>
</g>
<path d="M883.149 27.4755C880.389 26.6101 877.491 28.7255 877.491 31.8026C877.169 33.9661 877.951 35.9854 880.251 36.7547C882.551 37.5239 885.173 36.2739 886.093 33.918C887.059 31.3218 885.771 28.2928 883.149 27.4755Z" fill="#C4C4C4"/>
<path d="M898.651 27.4755C895.891 26.6101 892.993 28.7255 892.993 31.8026C892.671 33.9661 893.453 35.9854 895.753 36.7547C898.053 37.5239 900.675 36.2739 901.595 33.918C902.561 31.3218 901.273 28.2928 898.651 27.4755Z" fill="#C4C4C4"/>
<path d="M914.153 27.4755C911.393 26.6101 908.495 28.7255 908.495 31.8026C908.173 33.9661 908.955 35.9854 911.255 36.7547C913.555 37.5239 916.177 36.2739 917.097 33.918C918.063 31.3218 916.821 28.2928 914.153 27.4755Z" fill="#C4C4C4"/>
<path d="M1028.01 36.5778C1025.07 33.703 1021.69 30.9588 1017.19 30.9588C1011.26 30.9588 1006.57 36.3818 1006.38 36.6432C1006.19 36.9045 1006.19 37.2965 1006.38 37.4926C1006.57 37.7539 1011.26 43.1769 1017.19 43.1769C1022.94 43.1769 1026.82 38.4726 1027.95 37.5579C1028.26 37.2965 1028.26 36.8392 1028.01 36.5778ZM1017.19 40.8248C1015.19 40.8248 1013.63 39.126 1013.63 37.0352C1013.63 34.9444 1015.26 33.2456 1017.19 33.2456C1019.13 33.2456 1020.82 34.9444 1020.82 37.0352C1020.82 39.126 1019.19 40.8248 1017.19 40.8248Z" fill="#C4C4C4"/>
<path d="M1017.19 34.5524C1015.88 34.5524 1014.88 35.6631 1014.88 37.0352C1014.88 38.4073 1015.94 39.518 1017.19 39.518C1018.51 39.518 1019.57 38.4073 1019.57 37.0352C1019.57 35.6631 1018.51 34.5524 1017.19 34.5524Z" fill="#C4C4C4"/>
<path d="M1009.13 6.39203V15.1472H1017.44L1009.13 6.39203Z" fill="#C4C4C4"/>
<path d="M1005.44 38.3419C1004.82 37.6232 1004.82 36.5125 1005.44 35.7285C1005.63 35.4671 1010.69 29.5868 1017.19 29.5868C1017.38 29.5868 1017.63 29.5868 1017.82 29.5868V16.454H1008.5C1008.13 16.454 1007.88 16.1273 1007.88 15.8006V6H989.814C988.939 6 988.189 6.71871 988.189 7.63343V44.6797C988.189 45.5944 988.939 46.3131 989.814 46.3131H1016.26C1017.13 46.3131 1017.82 45.5944 1017.82 44.6797V44.4183C1017.63 44.4183 1017.38 44.4183 1017.19 44.4183C1010.69 44.4837 1005.63 38.6033 1005.44 38.3419ZM993.315 10.5083H1003C1003.32 10.5083 1003.63 10.835 1003.63 11.1616C1003.63 11.4883 1003.32 11.815 1003 11.815H993.315C992.94 11.815 992.69 11.4883 992.69 11.1616C992.69 10.835 993.002 10.5083 993.315 10.5083ZM993.315 16.5193H1004.44C1004.82 16.5193 1005.07 16.846 1005.07 17.1727C1005.07 17.4994 1004.82 17.826 1004.44 17.826H993.315C992.94 17.826 992.69 17.4994 992.69 17.1727C992.69 16.846 993.002 16.5193 993.315 16.5193ZM993.315 22.5303H1012.69C1013.01 22.5303 1013.32 22.7917 1013.32 23.1837C1013.32 23.5104 1013.01 23.8371 1012.69 23.8371H993.315C992.94 23.8371 992.69 23.5104 992.69 23.1837C992.69 22.857 993.002 22.5303 993.315 22.5303ZM993.315 28.5414H1012.69C1013.01 28.5414 1013.32 28.868 1013.32 29.1947C1013.32 29.5214 1013.01 29.8481 1012.69 29.8481H993.315C992.94 29.8481 992.69 29.5214 992.69 29.1947C992.69 28.868 993.002 28.5414 993.315 28.5414ZM1002.94 41.8702H993.315C992.94 41.8702 992.69 41.6088 992.69 41.2168C992.69 40.8901 992.94 40.5634 993.315 40.5634H1002.94C1003.32 40.5634 1003.57 40.8901 1003.57 41.2168C1003.57 41.5435 1003.32 41.8702 1002.94 41.8702ZM1002.94 35.8591H993.315C992.94 35.8591 992.69 35.5324 992.69 35.2058C992.69 34.8791 992.94 34.5524 993.315 34.5524H1002.94C1003.32 34.5524 1003.57 34.8791 1003.57 35.2058C1003.57 35.5324 1003.32 35.8591 1002.94 35.8591Z" fill="#C4C4C4"/>
<circle cx="17.5" cy="77.5" r="12.5" fill="#1B89EE"/>
<circle cx="140.5" cy="75.5" r="12.5" fill="#C4C4C4"/>
<circle cx="266.5" cy="75.5" r="12.5" fill="#C4C4C4"/>
<circle cx="395.5" cy="75.5" r="12.5" fill="#C4C4C4"/>
<circle cx="520.5" cy="75.5" r="12.5" fill="#C4C4C4"/>
<circle cx="646.5" cy="75.5" r="12.5" fill="#C4C4C4"/>
<circle cx="775.5" cy="75.5" r="12.5" fill="#C4C4C4"/>
<circle cx="900.5" cy="75.5" r="12.5" fill="#C4C4C4"/>
<circle cx="1005.5" cy="75.5" r="12.5" fill="#C4C4C4"/>
<defs>
<clipPath id="clip0">
<rect width="57.971" height="60.5918" fill="white" transform="translate(629.243 3.92523) scale(0.69)"/>
</clipPath>
</defs>
</svg>
