<svg width="63" height="63" viewBox="0 0 63 63" fill="none" xmlns="http://www.w3.org/2000/svg">
<g filter="url(#filter0_d)">
<circle cx="31.5" cy="27.5" r="27.5" fill="#4C9B30"/>
</g>
<g filter="url(#filter1_d)">
<path d="M46.1719 41.3125H18.8281C16.7173 41.3125 15 39.5952 15 37.4844V17.9531C15 15.8423 16.7173 14.125 18.8281 14.125H22.3438C22.5163 14.125 22.6562 14.2649 22.6562 14.4375V17.25H25.9375V14.4375C25.9375 14.2649 26.0774 14.125 26.25 14.125H38.75C38.9226 14.125 39.0625 14.2649 39.0625 14.4375V17.25H42.3438V14.4375C42.3438 14.2649 42.4837 14.125 42.6562 14.125H46.1719C48.2827 14.125 50 15.8423 50 17.9531V37.4844C50 39.5952 48.2827 41.3125 46.1719 41.3125ZM18.8281 14.75C17.062 14.75 15.625 16.187 15.625 17.9531V37.4844C15.625 39.2505 17.062 40.6875 18.8281 40.6875H46.1719C47.938 40.6875 49.375 39.2505 49.375 37.4844V17.9531C49.375 16.187 47.938 14.75 46.1719 14.75H42.9688V17.5625C42.9688 17.7351 42.8288 17.875 42.6562 17.875H38.75C38.5774 17.875 38.4375 17.7351 38.4375 17.5625V14.75H26.5625V17.5625C26.5625 17.7351 26.4226 17.875 26.25 17.875H22.3438C22.1712 17.875 22.0312 17.7351 22.0312 17.5625V14.75H18.8281Z" fill="white"/>
<path d="M26.25 17.875H22.3438C22.1712 17.875 22.0312 17.7351 22.0312 17.5625V13.2656C22.0312 12.0163 23.0476 11 24.2969 11C25.5462 11 26.5625 12.0163 26.5625 13.2656V17.5625C26.5625 17.7351 26.4226 17.875 26.25 17.875ZM22.6562 17.25H25.9375V13.2656C25.9375 12.3609 25.2016 11.625 24.2969 11.625C23.3922 11.625 22.6562 12.3609 22.6562 13.2656V17.25Z" fill="white"/>
<path d="M42.6562 17.875H38.75C38.5774 17.875 38.4375 17.7351 38.4375 17.5625V13.2656C38.4375 12.0163 39.4539 11 40.7031 11C41.9523 11 42.9688 12.0163 42.9688 13.2656V17.5625C42.9688 17.7351 42.8288 17.875 42.6562 17.875ZM39.0625 17.25H42.3438V13.2656C42.3438 12.3609 41.6077 11.625 40.7031 11.625C39.7985 11.625 39.0625 12.3609 39.0625 13.2656V17.25Z" fill="white"/>
<path d="M24.6875 21H15.3125C15.1399 21 15 20.8601 15 20.6875C15 20.5149 15.1399 20.375 15.3125 20.375H24.6875C24.8601 20.375 25 20.5149 25 20.6875C25 20.8601 24.8601 21 24.6875 21Z" fill="white"/>
<path d="M49.6875 21H30.1562C29.9837 21 29.8438 20.8601 29.8438 20.6875C29.8438 20.5149 29.9837 20.375 30.1562 20.375H49.6875C49.8601 20.375 50 20.5149 50 20.6875C50 20.8601 49.8601 21 49.6875 21Z" fill="white"/>
<path d="M24.6875 29.5938H21.5625C21.3899 29.5938 21.25 29.4538 21.25 29.2812V26.1562C21.25 25.9837 21.3899 25.8438 21.5625 25.8438H24.6875C24.8601 25.8438 25 25.9837 25 26.1562V29.2812C25 29.4538 24.8601 29.5938 24.6875 29.5938ZM21.875 28.9688H24.375V26.4688H21.875V28.9688Z" fill="white"/>
<path d="M30.9375 29.5938H27.8125C27.6399 29.5938 27.5 29.4538 27.5 29.2812V26.1562C27.5 25.9837 27.6399 25.8438 27.8125 25.8438H30.9375C31.1101 25.8438 31.25 25.9837 31.25 26.1562V29.2812C31.25 29.4538 31.1101 29.5938 30.9375 29.5938ZM28.125 28.9688H30.625V26.4688H28.125V28.9688Z" fill="white"/>
<path d="M37.1875 29.5938H34.0625C33.8899 29.5938 33.75 29.4538 33.75 29.2812V26.1562C33.75 25.9837 33.8899 25.8438 34.0625 25.8438H37.1875C37.3601 25.8438 37.5 25.9837 37.5 26.1562V29.2812C37.5 29.4538 37.3601 29.5938 37.1875 29.5938ZM34.375 28.9688H36.875V26.4688H34.375V28.9688Z" fill="white"/>
<path d="M43.4375 29.5938H40.3125C40.1399 29.5938 40 29.4538 40 29.2812V26.1562C40 25.9837 40.1399 25.8438 40.3125 25.8438H43.4375C43.6101 25.8438 43.75 25.9837 43.75 26.1562V29.2812C43.75 29.4538 43.6101 29.5938 43.4375 29.5938ZM40.625 28.9688H43.125V26.4688H40.625V28.9688Z" fill="white"/>
<path d="M24.6875 35.8438H21.5625C21.3899 35.8438 21.25 35.7038 21.25 35.5312V32.4062C21.25 32.2337 21.3899 32.0938 21.5625 32.0938H24.6875C24.8601 32.0938 25 32.2337 25 32.4062V35.5312C25 35.7038 24.8601 35.8438 24.6875 35.8438ZM21.875 35.2188H24.375V32.7188H21.875V35.2188Z" fill="white"/>
<path d="M30.9375 35.8438H27.8125C27.6399 35.8438 27.5 35.7038 27.5 35.5312V32.4062C27.5 32.2337 27.6399 32.0938 27.8125 32.0938H30.9375C31.1101 32.0938 31.25 32.2337 31.25 32.4062V35.5312C31.25 35.7038 31.1101 35.8438 30.9375 35.8438ZM28.125 35.2188H30.625V32.7188H28.125V35.2188Z" fill="white"/>
<path d="M37.1875 35.8438H34.0625C33.8899 35.8438 33.75 35.7038 33.75 35.5312V32.4062C33.75 32.2337 33.8899 32.0938 34.0625 32.0938H37.1875C37.3601 32.0938 37.5 32.2337 37.5 32.4062V35.5312C37.5 35.7038 37.3601 35.8438 37.1875 35.8438ZM34.375 35.2188H36.875V32.7188H34.375V35.2188Z" fill="white"/>
</g>
<defs>
<filter id="filter0_d" x="0" y="0" width="63" height="63" filterUnits="userSpaceOnUse" color-interpolation-filters="sRGB">
<feFlood flood-opacity="0" result="BackgroundImageFix"/>
<feColorMatrix in="SourceAlpha" type="matrix" values="0 0 0 0 0 0 0 0 0 0 0 0 0 0 0 0 0 0 127 0"/>
<feOffset dy="4"/>
<feGaussianBlur stdDeviation="2"/>
<feColorMatrix type="matrix" values="0 0 0 0 0 0 0 0 0 0 0 0 0 0 0 0 0 0 0.25 0"/>
<feBlend mode="normal" in2="BackgroundImageFix" result="effect1_dropShadow"/>
<feBlend mode="normal" in="SourceGraphic" in2="effect1_dropShadow" result="shape"/>
</filter>
<filter id="filter1_d" x="11" y="11" width="43" height="38.3125" filterUnits="userSpaceOnUse" color-interpolation-filters="sRGB">
<feFlood flood-opacity="0" result="BackgroundImageFix"/>
<feColorMatrix in="SourceAlpha" type="matrix" values="0 0 0 0 0 0 0 0 0 0 0 0 0 0 0 0 0 0 127 0"/>
<feOffset dy="4"/>
<feGaussianBlur stdDeviation="2"/>
<feColorMatrix type="matrix" values="0 0 0 0 0 0 0 0 0 0 0 0 0 0 0 0 0 0 0.25 0"/>
<feBlend mode="normal" in2="BackgroundImageFix" result="effect1_dropShadow"/>
<feBlend mode="normal" in="SourceGraphic" in2="effect1_dropShadow" result="shape"/>
</filter>
</defs>
</svg>
