<svg width="70" height="70" viewBox="0 0 70 70" fill="none" xmlns="http://www.w3.org/2000/svg">
<rect width="70" height="70" fill="#C4C4C4"/>
<g filter="url(#filter0_d)">
<path d="M55.5312 55.3035H16.4687C13.4532 55.3035 11 52.8503 11 49.8348V21.933C11 18.9175 13.4532 16.4642 16.4687 16.4642H21.4911C21.7376 16.4642 21.9375 16.6641 21.9375 16.9107V20.9285H26.625V16.9107C26.625 16.6641 26.8249 16.4642 27.0714 16.4642H44.9286C45.1751 16.4642 45.375 16.6641 45.375 16.9107V20.9285H50.0625V16.9107C50.0625 16.6641 50.2624 16.4642 50.5089 16.4642H55.5312C58.5468 16.4642 61 18.9175 61 21.933V49.8348C61 52.8503 58.5468 55.3035 55.5312 55.3035ZM16.4687 17.3571C13.9456 17.3571 11.8929 19.4099 11.8929 21.933V49.8348C11.8929 52.3579 13.9456 54.4107 16.4687 54.4107H55.5312C58.0544 54.4107 60.1071 52.3579 60.1071 49.8348V21.933C60.1071 19.4099 58.0544 17.3571 55.5312 17.3571H50.9554V21.3749C50.9554 21.6215 50.7555 21.8214 50.5089 21.8214H44.9286C44.682 21.8214 44.4821 21.6215 44.4821 21.3749V17.3571H27.5179V21.3749C27.5179 21.6215 27.318 21.8214 27.0714 21.8214H21.4911C21.2445 21.8214 21.0446 21.6215 21.0446 21.3749V17.3571H16.4687Z" fill="white"/>
<path d="M27.0714 21.8214H21.491C21.2445 21.8214 21.0446 21.6215 21.0446 21.375V15.2366C21.0446 13.4519 22.4965 12 24.2812 12C26.0659 12 27.5178 13.4519 27.5178 15.2366V21.375C27.5178 21.6215 27.3179 21.8214 27.0714 21.8214ZM21.9375 20.9286H26.625V15.2366C26.625 13.9442 25.5736 12.8929 24.2812 12.8929C22.9888 12.8929 21.9375 13.9442 21.9375 15.2366V20.9286Z" fill="white"/>
<path d="M50.5089 21.8214H44.9285C44.682 21.8214 44.4821 21.6215 44.4821 21.375V15.2366C44.4821 13.4519 45.9341 12 47.7187 12C49.5033 12 50.9553 13.4519 50.9553 15.2366V21.375C50.9553 21.6215 50.7554 21.8214 50.5089 21.8214ZM45.375 20.9286H50.0625V15.2366C50.0625 13.9442 49.011 12.8929 47.7187 12.8929C46.4264 12.8929 45.375 13.9442 45.375 15.2366V20.9286Z" fill="white"/>
<path d="M24.8393 26.2857H11.4464C11.1999 26.2857 11 26.0858 11 25.8393C11 25.5927 11.1999 25.3928 11.4464 25.3928H24.8393C25.0858 25.3928 25.2857 25.5927 25.2857 25.8393C25.2857 26.0858 25.0858 26.2857 24.8393 26.2857Z" fill="white"/>
<path d="M60.5536 26.2857H32.6518C32.4053 26.2857 32.2054 26.0858 32.2054 25.8393C32.2054 25.5927 32.4053 25.3928 32.6518 25.3928H60.5536C60.8001 25.3928 61 25.5927 61 25.8393C61 26.0858 60.8001 26.2857 60.5536 26.2857Z" fill="white"/>
<path d="M24.8393 38.5625H20.375C20.1285 38.5625 19.9286 38.3626 19.9286 38.116V33.6518C19.9286 33.4052 20.1285 33.2053 20.375 33.2053H24.8393C25.0858 33.2053 25.2857 33.4052 25.2857 33.6518V38.116C25.2857 38.3626 25.0858 38.5625 24.8393 38.5625ZM20.8214 37.6696H24.3929V34.0982H20.8214V37.6696Z" fill="white"/>
<path d="M33.7678 38.5625H29.3035C29.057 38.5625 28.8571 38.3626 28.8571 38.116V33.6518C28.8571 33.4052 29.057 33.2053 29.3035 33.2053H33.7678C34.0144 33.2053 34.2143 33.4052 34.2143 33.6518V38.116C34.2143 38.3626 34.0144 38.5625 33.7678 38.5625ZM29.75 37.6696H33.3214V34.0982H29.75V37.6696Z" fill="white"/>
<path d="M42.6964 38.5625H38.2321C37.9856 38.5625 37.7857 38.3626 37.7857 38.116V33.6518C37.7857 33.4052 37.9856 33.2053 38.2321 33.2053H42.6964C42.943 33.2053 43.1428 33.4052 43.1428 33.6518V38.116C43.1428 38.3626 42.943 38.5625 42.6964 38.5625ZM38.6786 37.6696H42.25V34.0982H38.6786V37.6696Z" fill="white"/>
<path d="M51.625 38.5625H47.1607C46.9142 38.5625 46.7143 38.3626 46.7143 38.116V33.6518C46.7143 33.4052 46.9142 33.2053 47.1607 33.2053H51.625C51.8715 33.2053 52.0714 33.4052 52.0714 33.6518V38.116C52.0714 38.3626 51.8715 38.5625 51.625 38.5625ZM47.6072 37.6696H51.1786V34.0982H47.6072V37.6696Z" fill="white"/>
<path d="M24.8393 47.4911H20.375C20.1285 47.4911 19.9286 47.2912 19.9286 47.0446V42.5803C19.9286 42.3338 20.1285 42.1339 20.375 42.1339H24.8393C25.0858 42.1339 25.2857 42.3338 25.2857 42.5803V47.0446C25.2857 47.2912 25.0858 47.4911 24.8393 47.4911ZM20.8214 46.5982H24.3929V43.0268H20.8214V46.5982Z" fill="white"/>
<path d="M33.7678 47.4911H29.3035C29.057 47.4911 28.8571 47.2912 28.8571 47.0446V42.5803C28.8571 42.3338 29.057 42.1339 29.3035 42.1339H33.7678C34.0144 42.1339 34.2143 42.3338 34.2143 42.5803V47.0446C34.2143 47.2912 34.0144 47.4911 33.7678 47.4911ZM29.75 46.5982H33.3214V43.0268H29.75V46.5982Z" fill="white"/>
<path d="M42.6964 47.4911H38.2321C37.9856 47.4911 37.7857 47.2912 37.7857 47.0446V42.5803C37.7857 42.3338 37.9856 42.1339 38.2321 42.1339H42.6964C42.943 42.1339 43.1428 42.3338 43.1428 42.5803V47.0446C43.1428 47.2912 42.943 47.4911 42.6964 47.4911ZM38.6786 46.5982H42.25V43.0268H38.6786V46.5982Z" fill="white"/>
</g>
<defs>
<filter id="filter0_d" x="7" y="12" width="58" height="51.3035" filterUnits="userSpaceOnUse" color-interpolation-filters="sRGB">
<feFlood flood-opacity="0" result="BackgroundImageFix"/>
<feColorMatrix in="SourceAlpha" type="matrix" values="0 0 0 0 0 0 0 0 0 0 0 0 0 0 0 0 0 0 127 0"/>
<feOffset dy="4"/>
<feGaussianBlur stdDeviation="2"/>
<feColorMatrix type="matrix" values="0 0 0 0 0 0 0 0 0 0 0 0 0 0 0 0 0 0 0.25 0"/>
<feBlend mode="normal" in2="BackgroundImageFix" result="effect1_dropShadow"/>
<feBlend mode="normal" in="SourceGraphic" in2="effect1_dropShadow" result="shape"/>
</filter>
</defs>
</svg>
