<svg width="41" height="10" viewBox="0 0 41 10" fill="none" xmlns="http://www.w3.org/2000/svg">
<path d="M6.14926 0.475515C3.38932 -0.389899 0.491382 1.72556 0.491382 4.80259C0.169389 6.96612 0.951372 8.98542 3.25132 9.75468C5.55127 10.5239 8.17321 9.27389 9.09319 6.91804C10.0592 4.3218 8.7712 1.29285 6.14926 0.475515Z" fill="#1B89EE"/>
<path d="M21.651 0.475515C18.891 -0.389899 15.9931 1.72556 15.9931 4.80259C15.6711 6.96612 16.4531 8.98542 18.753 9.75468C21.053 10.5239 23.6749 9.27389 24.5949 6.91804C25.5609 4.3218 24.2729 1.29285 21.651 0.475515Z" fill="#1B89EE"/>
<path d="M37.1526 0.475515C34.3927 -0.389899 31.4947 1.72556 31.4947 4.80259C31.1727 6.96612 31.9547 8.98542 34.2547 9.75468C36.5546 10.5239 39.1766 9.27389 40.0966 6.91804C41.0625 4.3218 39.8206 1.29285 37.1526 0.475515Z" fill="#1B89EE"/>
</svg>
