<svg width="70" height="70" viewBox="0 0 70 70" fill="none" xmlns="http://www.w3.org/2000/svg">
<rect width="70" height="70" fill="#C4C4C4"/>
<g filter="url(#filter0_d)">
<path d="M13 21.5398V46.331H58V21.5398H13ZM56.167 44.498H14.833V23.3728H56.167V44.498V44.498Z" fill="white"/>
<path d="M28.5804 33.9582C28.5804 30.5213 29.9093 27.6802 32.2005 26.3971L32.338 26.3054L31.9714 24.6558H20.0111V25.5723C20.0111 26.8554 18.9572 27.9093 17.6741 27.9093H16.7576V39.7321H17.6741C18.9572 39.7321 20.0111 40.7861 20.0111 42.0692C20.0111 42.115 20.0111 42.115 20.0111 42.1608L19.9195 43.2148H31.9256L32.2922 41.5651L32.1547 41.4735C29.9093 40.1904 28.5804 37.3951 28.5804 33.9582ZM25.006 36.5244H20.7901V34.6914H25.006V36.5244ZM25.006 32.8584H20.7901V31.0254H25.006V32.8584Z" fill="white"/>
<path d="M53.3259 27.9093C52.0428 27.9093 50.9888 26.8554 50.9888 25.5723V24.6558H39.0744L38.7078 26.3054L38.8452 26.3971C41.0907 27.6802 42.4654 30.4755 42.4654 33.9582C42.4654 37.4409 41.0907 40.2362 38.8452 41.5193L38.7078 41.5651L39.0744 43.2148H51.0805L51.0346 42.1608C51.0346 42.115 51.0346 42.115 51.0346 42.0692C51.0346 40.7861 52.0886 39.7321 53.3717 39.7321H54.2882V27.9093H53.3259ZM50.2098 36.5244H45.9939V34.6914H50.2098V36.5244ZM50.2098 32.8584H45.9939V31.0254H50.2098V32.8584Z" fill="white"/>
<path d="M28.9929 18.8361L26.61 16.499H38.6161C41.5031 16.499 44.1151 18.057 45.4898 20.6232L47.0937 19.7525C45.444 16.5906 42.1905 14.666 38.6161 14.666H26.61L28.9929 12.2831L27.7098 11L23.1273 15.5825L27.7098 20.1191L28.9929 18.8361Z" fill="white"/>
<path d="M42.053 48.943L44.5275 51.3717H32.384C29.497 51.3717 26.8391 49.7679 25.4644 47.2017L23.8605 48.0723C25.5561 51.2342 28.8096 53.2047 32.384 53.2047H44.3442L42.053 55.496L43.3361 56.779L47.9186 52.1966L43.2903 47.6599L42.053 48.943Z" fill="white"/>
</g>
<defs>
<filter id="filter0_d" x="9" y="11" width="53" height="53.779" filterUnits="userSpaceOnUse" color-interpolation-filters="sRGB">
<feFlood flood-opacity="0" result="BackgroundImageFix"/>
<feColorMatrix in="SourceAlpha" type="matrix" values="0 0 0 0 0 0 0 0 0 0 0 0 0 0 0 0 0 0 127 0"/>
<feOffset dy="4"/>
<feGaussianBlur stdDeviation="2"/>
<feColorMatrix type="matrix" values="0 0 0 0 0 0 0 0 0 0 0 0 0 0 0 0 0 0 0.25 0"/>
<feBlend mode="normal" in2="BackgroundImageFix" result="effect1_dropShadow"/>
<feBlend mode="normal" in="SourceGraphic" in2="effect1_dropShadow" result="shape"/>
</filter>
</defs>
</svg>
