<svg width="51" height="36" viewBox="0 0 51 36" fill="none" xmlns="http://www.w3.org/2000/svg">
<path d="M49.3901 33.7254C48.4599 33.7503 47.5439 33.482 46.7616 32.9554C45.7189 32.3137 44.531 31.9753 43.321 31.9753C42.111 31.9753 40.9231 32.3137 39.8804 32.9554C39.0868 33.459 38.1762 33.7253 37.2477 33.7253C36.3192 33.7253 35.4086 33.459 34.615 32.9554C33.5723 32.3137 32.3844 31.9753 31.1744 31.9753C29.9644 31.9753 28.7765 32.3137 27.7338 32.9554C26.9417 33.459 26.0324 33.7254 25.1053 33.7254C24.1781 33.7254 23.2688 33.459 22.4767 32.9554C21.4432 32.2914 20.2491 31.9513 19.0361 31.9754C17.8232 31.9513 16.6291 32.2914 15.5956 32.9554C14.8132 33.482 13.8973 33.7503 12.967 33.7254C12.0371 33.7476 11.1219 33.4795 10.3385 32.9554C9.30863 32.2899 8.11677 31.9496 6.90627 31.9754C5.69333 31.9513 4.49923 32.2914 3.46571 32.9554C2.6828 33.4808 1.76726 33.749 0.837151 33.7254C0.615133 33.7254 0.402208 33.8175 0.245217 33.9816C0.0882268 34.1457 3.05176e-05 34.3683 3.05176e-05 34.6003C3.05176e-05 34.8324 0.0882268 35.0549 0.245217 35.219C0.402208 35.3831 0.615133 35.4753 0.837151 35.4753C2.05009 35.4994 3.24419 35.1593 4.27772 34.4953C5.06009 33.9687 5.976 33.7004 6.90627 33.7254C7.83638 33.7018 8.75193 33.9699 9.53483 34.4953C10.5647 35.1608 11.7565 35.5011 12.967 35.4753C14.1801 35.5008 15.3746 35.1606 16.4076 34.4953C17.1905 33.9699 18.106 33.7018 19.0361 33.7254C19.9664 33.7004 20.8823 33.9687 21.6647 34.4953C22.7074 35.137 23.8953 35.4754 25.1053 35.4754C26.3153 35.4754 27.5032 35.137 28.5458 34.4953C29.3379 33.9917 30.2473 33.7253 31.1744 33.7253C32.1015 33.7253 33.0108 33.9917 33.803 34.4953C34.8456 35.137 36.0335 35.4754 37.2435 35.4754C38.4535 35.4754 39.6414 35.137 40.6841 34.4953C41.4777 33.9917 42.3884 33.7254 43.3168 33.7254C44.2453 33.7254 45.1559 33.9917 45.9496 34.4953C46.9831 35.1593 48.1772 35.4994 49.3901 35.4753C49.6122 35.4753 49.8251 35.3831 49.9821 35.219C50.1391 35.0549 50.2273 34.8324 50.2273 34.6003C50.2273 34.3683 50.1391 34.1457 49.9821 33.9816C49.8251 33.8175 49.6122 33.7254 49.3901 33.7254Z" fill="#1B89EE"/>
<path d="M0.837151 31.9754C2.04798 32.004 3.24059 31.6635 4.26934 30.9955C5.05593 30.4714 5.97373 30.2034 6.90627 30.2255C7.83656 30.2004 8.75252 30.4687 9.53483 30.9955C9.54465 31.0024 9.55652 31.0055 9.56832 31.0042C10.586 31.6683 11.7676 32.006 12.967 31.9754C14.1838 32 15.3815 31.6567 16.416 30.9867C17.1974 30.4659 18.1097 30.2009 19.0361 30.2255C19.9716 30.2007 20.8929 30.4689 21.6814 30.9955C22.707 31.6638 23.897 32.0044 25.1053 31.9754C26.322 32 27.5197 31.6567 28.5542 30.9867C29.3495 30.4872 30.2602 30.224 31.1881 30.2256C32.116 30.2271 33.0259 30.4933 33.8197 30.9955C34.8452 31.6638 36.0353 32.0044 37.2435 31.9754C38.4565 31.9996 39.6506 31.6595 40.6841 30.9955C41.4707 30.4714 42.3885 30.2034 43.321 30.2255C43.4943 30.2251 43.6676 30.2338 43.84 30.2517C44.591 30.3147 45.3155 30.5701 45.9496 30.9955C46.9826 31.6607 48.177 32.001 49.3901 31.9754C49.6122 31.9754 49.8251 31.8832 49.9821 31.7191C50.1391 31.5551 50.2273 31.3325 50.2273 31.1005C50.2273 30.8684 50.1391 30.6458 49.9821 30.4818C49.8251 30.3177 49.6122 30.2255 49.3901 30.2255C48.4574 30.2488 47.5393 29.9807 46.7532 29.4555C46.2433 29.1386 45.6978 28.8888 45.1292 28.7118C44.7543 28.6032 44.3702 28.5329 43.9823 28.5018C43.7926 28.4843 43.5917 28.4756 43.3796 28.4756H43.321C42.1081 28.4514 40.914 28.7915 39.8804 29.4555C39.0853 29.9592 38.1733 30.2255 37.2435 30.2255C36.3137 30.2255 35.4017 29.9592 34.6066 29.4555C33.567 28.8139 32.3817 28.4755 31.1744 28.4755C29.9671 28.4755 28.7818 28.8139 27.7422 29.4555C26.947 29.9592 26.035 30.2255 25.1053 30.2255C24.1755 30.2255 23.2635 29.9592 22.4683 29.4555C21.4396 28.7874 20.247 28.4468 19.0361 28.4756C17.8253 28.4469 16.6327 28.7875 15.604 29.4555C14.8174 29.9795 13.8996 30.2475 12.967 30.2255C12.0343 30.2488 11.1162 29.9807 10.3301 29.4555C9.304 28.7885 8.11435 28.448 6.90627 28.4756C6.58996 28.4722 6.27383 28.4927 5.96033 28.5368C5.85987 28.5456 5.76779 28.563 5.67571 28.5805C5.61904 28.5871 5.56302 28.5989 5.50828 28.6155C5.42457 28.633 5.34923 28.6505 5.27389 28.668C5.19758 28.6844 5.12214 28.7048 5.04787 28.7293C4.84506 28.7875 4.64644 28.8606 4.45351 28.948C4.33341 28.9965 4.21603 29.052 4.10192 29.1143C4.05293 29.134 4.00537 29.1574 3.95961 29.1843C3.78381 29.2805 3.61639 29.368 3.45734 29.4643C3.12842 29.6659 2.78401 29.8386 2.42768 29.9805C1.91446 30.1551 1.37674 30.2379 0.837151 30.2255C0.615133 30.2255 0.402208 30.3177 0.245217 30.4818C0.0882268 30.6458 3.05176e-05 30.8684 3.05176e-05 31.1005C3.05176e-05 31.3325 0.0882268 31.5551 0.245217 31.7191C0.402208 31.8832 0.615133 31.9754 0.837151 31.9754Z" fill="#1B89EE"/>
<path d="M2.42766 28.2306C2.784 28.0887 3.12841 27.916 3.45732 27.7143C3.61637 27.6181 3.7838 27.5306 3.95959 27.4343C4.00535 27.4074 4.05291 27.3841 4.1019 27.3643C4.21601 27.302 4.33339 27.2465 4.45349 27.1981C4.64642 27.1106 4.84504 27.0375 5.04785 26.9794C5.12212 26.9549 5.19756 26.9344 5.27387 26.9181C5.34921 26.9006 5.42455 26.8831 5.50826 26.8656C5.563 26.8489 5.61902 26.8372 5.67569 26.8306C5.76777 26.8131 5.85986 26.7956 5.96031 26.7869C6.27381 26.7427 6.58994 26.7223 6.90626 26.7256C8.11433 26.6981 9.30398 27.0386 10.3301 27.7056C11.1162 28.2308 12.0343 28.4989 12.967 28.4755C13.8996 28.4976 14.8173 28.2296 15.6039 27.7056C16.6327 27.0375 17.8253 26.697 19.0361 26.7256C20.247 26.6969 21.4396 27.0374 22.4683 27.7056C23.2635 28.2092 24.1755 28.4755 25.1053 28.4755C26.035 28.4755 26.947 28.2092 27.7422 27.7056C28.7818 27.064 29.9671 26.7255 31.1744 26.7255C32.3817 26.7255 33.5669 27.064 34.6066 27.7056C35.4017 28.2092 36.3137 28.4755 37.2435 28.4755C38.1733 28.4755 39.0853 28.2092 39.8804 27.7056C40.9139 27.0416 42.1081 26.7015 43.321 26.7256H43.3796C43.5889 26.7256 43.7898 26.7344 43.9823 26.7519C44.3702 26.7829 44.7543 26.8533 45.1292 26.9619L50.1519 15.7185C50.2105 15.5847 50.2359 15.4375 50.2256 15.2907C50.2154 15.1439 50.1699 15.0021 50.0933 14.8786C50.0185 14.7545 49.9147 14.6524 49.7917 14.582C49.6686 14.5116 49.5304 14.4751 49.3901 14.4761H37.6704C37.4891 14.4751 37.3126 14.5366 37.1682 14.6511L34.0457 17.101H0.837133C0.70998 17.1003 0.584343 17.1298 0.469755 17.1875C0.355168 17.2451 0.254642 17.3292 0.175808 17.4335C0.0987372 17.5393 0.0452193 17.6618 0.0191525 17.7919C-0.00691421 17.9221 -0.00487348 18.0567 0.0251263 18.186L2.42766 28.2306Z" fill="#1B89EE"/>
<path d="M24.2179 6.2864C24.1578 6.12154 24.0511 5.97969 23.9121 5.87968C23.773 5.77966 23.6082 5.72621 23.4394 5.72642H13.3939V1.35159C13.3939 1.11953 13.3058 0.896983 13.1488 0.732895C12.9918 0.568807 12.7788 0.476624 12.5568 0.476624H9.20834C8.98633 0.476624 8.7734 0.568807 8.61641 0.732895C8.45942 0.896983 8.37122 1.11953 8.37122 1.35159V5.72642H6.69698C6.47497 5.72642 6.26204 5.8186 6.10505 5.98269C5.94806 6.14678 5.85986 6.36933 5.85986 6.60138V15.351H27.5505L24.2179 6.2864ZM11.3011 12.7261C10.8872 12.7261 10.4826 12.5979 10.1384 12.3575C9.79429 12.1171 9.52605 11.7755 9.36765 11.3758C9.20925 10.9761 9.16781 10.5363 9.24856 10.112C9.32931 9.68767 9.52863 9.29791 9.82131 8.99199C10.114 8.68608 10.4869 8.47775 10.8929 8.39335C11.2988 8.30894 11.7196 8.35226 12.102 8.51782C12.4844 8.68338 12.8113 8.96375 13.0412 9.32347C13.2712 9.68319 13.3939 10.1061 13.3939 10.5387C13.3939 11.1189 13.1735 11.6752 12.781 12.0855C12.3885 12.4957 11.8562 12.7261 11.3011 12.7261ZM19.6723 12.7261C19.2584 12.7261 18.8538 12.5979 18.5097 12.3575C18.1655 12.1171 17.8973 11.7755 17.7389 11.3758C17.5805 10.9761 17.539 10.5363 17.6198 10.112C17.7005 9.68767 17.8998 9.29791 18.1925 8.99199C18.4852 8.68608 18.8581 8.47775 19.2641 8.39335C19.67 8.30894 20.0908 8.35226 20.4732 8.51782C20.8556 8.68338 21.1825 8.96375 21.4125 9.32347C21.6424 9.68319 21.7652 10.1061 21.7652 10.5387C21.7652 11.1189 21.5447 11.6752 21.1522 12.0855C20.7597 12.4957 20.2274 12.7261 19.6723 12.7261Z" fill="#1B89EE"/>
</svg>
