<svg width="41" height="43" viewBox="0 0 41 43" fill="none" xmlns="http://www.w3.org/2000/svg">
<g clip-path="url(#clip0)">
<path d="M34.648 17.4395L33.658 23.3207C33.5188 24.1485 32.7692 25.7138 30.9312 25.7138H9.41156C8.60796 25.7138 7.00276 25.2146 6.67836 23.3232L5.67236 17.4537L0.255964 18.0875V21.6534H3.09516V24.0068H2.28236C2.28236 24.0068 0.243164 23.8747 0.243164 26.0056V40.7326C0.243164 40.7326 0.243164 42.7319 2.28236 42.7319H5.02716C5.02716 42.7319 7.06596 42.864 7.06596 40.7326V35.0555H21.3136C21.3136 35.0555 22.5232 36.2315 23.9388 36.2905C26.1464 36.3829 27.1952 34.5638 27.1952 34.5638L33.3608 36.1726V40.7326C33.3608 40.7326 33.6564 42.7319 35.6956 42.7319H38.1444C38.1444 42.7319 40.1844 42.864 40.1844 40.7326V26.0056C40.1844 26.0056 40.1844 24.0068 38.1444 24.0068H37.3348L37.3636 21.6534H40.194V18.0875L34.648 17.4395Z" fill="#1B89EE"/>
<path d="M36.4004 15.9253L36.406 11.5605H33.8503V7.59035C33.8503 6.1396 32.7216 4.95935 31.3328 4.95935H9.17275C7.78475 4.95935 6.65515 6.1396 6.65515 7.59035V11.5559L4.18235 11.55L4.17395 15.947L6.43675 15.9545C6.42755 16.197 7.60075 22.9779 7.60075 22.9779C7.90675 24.7627 9.59315 24.7824 9.66475 24.7824H30.6772C32.4115 24.7824 32.7228 23.0511 32.7356 22.9779C32.7356 22.9779 33.9072 16.0795 33.9084 15.9257H36.4004V15.9253ZM25.2428 13.7027C25.4996 12.9038 26.2224 12.326 27.072 12.326C27.9224 12.326 28.6448 12.9038 28.9016 13.7027H25.2428ZM8.24875 7.59035C8.24875 7.05813 8.66315 6.62458 9.17275 6.62458H31.3324C31.842 6.62458 32.2568 7.05813 32.2568 7.59035V13.7023H30.6484C30.3564 11.915 28.8648 10.5495 27.0724 10.5495C25.2808 10.5495 23.7884 11.9146 23.4964 13.7023H17.7048V12.2712C17.7048 12.2712 17.7048 11.5605 17.0252 11.5605H12.3984C12.3984 11.5605 11.7188 11.5605 11.7188 12.2712V13.7023H8.24875V7.59035ZM10.9268 20.6872C9.81275 20.6872 8.90995 19.7436 8.90995 18.5797C8.90995 17.4153 9.81275 16.4717 10.9268 16.4717C12.0404 16.4717 12.9432 17.4153 12.9432 18.5797C12.9432 19.7436 12.0404 20.6872 10.9268 20.6872ZM29.3204 20.6872C28.2068 20.6872 27.304 19.7436 27.304 18.5797C27.304 17.4153 28.2068 16.4717 29.3204 16.4717C30.434 16.4717 31.3372 17.4153 31.3372 18.5797C31.3372 19.7436 30.4344 20.6872 29.3204 20.6872ZM15.8592 23.207H14.3952V16.7251H15.8592V23.207ZM18.3844 23.207H16.9204V16.7251H18.3844V23.207ZM20.8976 23.207H19.4336V16.7251H20.8976V23.207ZM23.422 23.207H21.9584V16.7251H23.422V23.207ZM25.9496 23.207H24.4856V16.7251H25.9496V23.207Z" fill="#1B89EE"/>
</g>
<defs>
<clipPath id="clip0">
<rect width="57.971" height="60.5918" fill="white" transform="translate(0.243164 0.925232) scale(0.69)"/>
</clipPath>
</defs>
</svg>
