<svg width="36" height="46" viewBox="0 0 36 46" fill="none" xmlns="http://www.w3.org/2000/svg">
<path d="M14.1901 7.65173C10.8404 9.14487 8.37739 12.4916 8.03256 16.4561H11.4315C11.6286 12.8005 12.663 9.60826 14.1901 7.65173Z" fill="#1B89EE"/>
<path d="M22.9585 16.4561C22.7122 11.3588 20.594 7.23984 18.0817 7.23984C15.5694 7.23984 13.4019 11.3588 13.2049 16.4561H22.9585Z" fill="#1B89EE"/>
<path d="M8.03256 18.2581C8.37739 22.2227 10.7911 25.5694 14.1901 27.0625C12.663 25.106 11.6286 21.9138 11.4808 18.2581H8.03256Z" fill="#1B89EE"/>
<path d="M21.924 7.65173C23.4511 9.60826 24.4855 12.8005 24.6333 16.4561H28.0323C27.786 12.4916 25.323 9.14487 21.924 7.65173Z" fill="#1B89EE"/>
<path d="M32.5642 0.700928H3.54985C2.1213 0.700928 0.988312 1.88514 0.988312 3.37827V43.0236C0.988312 44.5167 2.1213 45.7009 3.54985 45.7009H32.5642C33.9928 45.7009 35.1258 44.5167 35.1258 43.0236V3.37827C35.1258 1.88514 33.9928 0.700928 32.5642 0.700928ZM28.9682 38.6472H7.19512C6.70252 38.6472 6.3577 38.2353 6.3577 37.7719C6.3577 37.257 6.75178 36.8966 7.19512 36.8966H28.9682C29.4608 36.8966 29.8056 37.3085 29.8056 37.7719C29.8056 38.2353 29.4116 38.6472 28.9682 38.6472ZM28.8204 35.352H7.29364C6.75178 35.352 6.30843 34.8886 6.30843 34.3222C6.30843 33.7558 6.75178 33.2925 7.29364 33.2925H28.8204C29.3623 33.2925 29.8056 33.7558 29.8056 34.3222C29.8056 34.8886 29.3623 35.352 28.8204 35.352ZM18.0817 29.6369C11.5793 29.6369 6.30843 24.1277 6.30843 17.3314C6.30843 10.5865 11.5793 5.02587 18.0817 5.02587C24.5348 5.02587 29.8056 10.5865 29.8056 17.3314C29.8056 24.1277 24.5348 29.6369 18.0817 29.6369Z" fill="#1B89EE"/>
<path d="M13.1556 18.2581C13.4019 23.3554 15.5201 27.4744 18.0324 27.4744C20.5447 27.4744 22.7122 23.3554 22.9092 18.2581H13.1556Z" fill="#1B89EE"/>
<path d="M21.924 27.0625C25.2737 25.5694 27.7367 22.2227 28.0815 18.2581H24.6826C24.5348 21.9138 23.5003 25.0545 21.924 27.0625Z" fill="#1B89EE"/>
</svg>
